<svg data-v-fde0c5aa="" xmlns="http://www.w3.org/2000/svg" viewBox="0 0 300 300" class="iconAboveSlogan"><!----><defs data-v-fde0c5aa=""><!----></defs><rect data-v-fde0c5aa="" fill="#1E0935" x="0" y="0" width="300px" height="300px" class="logo-background-square"></rect><defs data-v-fde0c5aa=""><!----></defs><g data-v-fde0c5aa="" id="f6be45f8-b4b4-4716-b45b-677257e45b8a" fill="#CD8B7C" transform="matrix(2.98301960848848,0,0,2.98301960848848,17.911886309618428,147.20697496459036)"><path d="M10.43 4.44C10.61 4.42 10.71 4.34 10.71 4.19L10.71 3.92L9.53 3.92L8.81 3.92L7.63 3.92L7.63 4.19C7.63 4.34 7.73 4.42 7.91 4.44L8.04 4.44C8.11 4.44 8.22 4.45 8.36 4.45C8.50 4.45 8.64 4.47 8.81 4.47L8.81 8.53L2.60 8.53L2.60 4.47C2.77 4.47 2.93 4.45 3.07 4.45C3.21 4.45 3.30 4.44 3.37 4.44L3.51 4.44C3.70 4.42 3.78 4.34 3.78 4.19L3.78 3.92L2.60 3.92L1.89 3.92L0.70 3.92L0.70 4.19C0.70 4.34 0.80 4.42 0.98 4.44L1.12 4.44C1.19 4.44 1.29 4.45 1.43 4.45C1.57 4.45 1.72 4.47 1.89 4.47L1.89 13.26C1.72 13.26 1.57 13.27 1.43 13.27C1.29 13.27 1.19 13.29 1.12 13.29L0.98 13.29C0.80 13.30 0.70 13.38 0.70 13.54L0.70 13.82L1.89 13.82L2.60 13.82L3.78 13.82L3.78 13.54C3.78 13.38 3.70 13.30 3.51 13.29L3.37 13.29C3.30 13.29 3.21 13.27 3.07 13.27C2.93 13.27 2.77 13.26 2.60 13.26L2.60 9.07L8.81 9.07L8.81 13.26C8.64 13.26 8.50 13.27 8.36 13.27C8.22 13.27 8.11 13.29 8.04 13.29L7.91 13.29C7.73 13.30 7.63 13.38 7.63 13.54L7.63 13.82L8.81 13.82L9.53 13.82L10.71 13.82L10.71 13.54C10.71 13.38 10.61 13.30 10.43 13.29L10.30 13.29C10.23 13.29 10.12 13.27 9.98 13.27C9.84 13.27 9.70 13.26 9.53 13.26L9.53 4.47C9.70 4.47 9.84 4.45 9.98 4.45C10.12 4.45 10.23 4.44 10.30 4.44ZM17.44 13.29L17.35 13.29L17.12 13.29C17.02 13.29 16.91 13.27 16.80 13.27L16.80 9.28C16.80 8.89 16.76 8.55 16.66 8.23C16.56 7.91 16.42 7.64 16.24 7.42C16.06 7.20 15.82 7.03 15.54 6.92C15.26 6.79 14.94 6.73 14.56 6.73C14.06 6.73 13.61 6.83 13.20 7.01C12.80 7.20 12.42 7.48 12.05 7.84L12.17 8.05C12.21 8.13 12.28 8.18 12.38 8.18C12.45 8.18 12.54 8.12 12.64 8.02C12.74 7.92 12.88 7.84 13.05 7.73C13.22 7.62 13.40 7.52 13.64 7.42C13.87 7.32 14.15 7.28 14.49 7.28C15.04 7.28 15.46 7.45 15.74 7.80C16.02 8.15 16.14 8.64 16.14 9.28L16.14 10.01C15.36 10.02 14.69 10.09 14.13 10.21C13.57 10.32 13.10 10.47 12.74 10.65C12.38 10.84 12.12 11.06 11.96 11.31C11.79 11.56 11.70 11.83 11.70 12.12C11.70 12.45 11.76 12.73 11.86 12.95C11.97 13.17 12.11 13.36 12.28 13.50C12.45 13.64 12.66 13.75 12.88 13.82C13.10 13.89 13.33 13.93 13.57 13.93C13.85 13.93 14.11 13.90 14.35 13.85C14.59 13.79 14.80 13.71 15.01 13.61C15.22 13.51 15.41 13.38 15.61 13.23C15.79 13.08 15.97 12.91 16.17 12.73L16.27 13.62C16.30 13.75 16.39 13.82 16.53 13.82L16.55 13.82L16.80 13.82L17.72 13.82L17.72 13.54C17.72 13.38 17.63 13.30 17.44 13.29ZM16.14 12.26C15.97 12.43 15.82 12.60 15.65 12.74C15.48 12.88 15.30 13.01 15.11 13.12C14.91 13.23 14.70 13.30 14.48 13.36C14.25 13.41 14 13.44 13.73 13.44C13.55 13.44 13.37 13.43 13.20 13.37C13.03 13.31 12.89 13.24 12.77 13.13C12.64 13.02 12.53 12.88 12.46 12.71C12.38 12.54 12.35 12.35 12.35 12.11C12.35 11.86 12.42 11.63 12.57 11.44C12.73 11.24 12.95 11.09 13.26 10.95C13.57 10.81 13.96 10.70 14.43 10.61C14.91 10.53 15.48 10.47 16.14 10.46ZM24.74 7.63C24.26 7.04 23.59 6.73 22.74 6.73C22.22 6.73 21.77 6.86 21.35 7.11C20.94 7.36 20.58 7.69 20.27 8.11L20.20 7.03C20.20 6.96 20.19 6.92 20.15 6.89C20.10 6.86 20.05 6.86 19.99 6.86L19.63 6.86L18.62 6.86L18.62 7.13C18.62 7.28 18.72 7.36 18.90 7.38L18.97 7.38C19.00 7.38 19.04 7.39 19.08 7.39L19.29 7.39C19.39 7.39 19.50 7.41 19.63 7.41L19.63 15.72C19.47 15.72 19.33 15.75 19.22 15.75L18.98 15.75L18.90 15.75C18.72 15.76 18.62 15.85 18.62 16.00L18.62 16.28L19.63 16.28L20.30 16.28L21.31 16.28L21.31 16.00C21.31 15.85 21.21 15.76 21.03 15.75L20.96 15.75L20.85 15.75C20.80 15.75 20.73 15.74 20.64 15.74C20.54 15.74 20.43 15.72 20.30 15.72L20.30 12.88C20.55 13.22 20.85 13.48 21.20 13.65C21.55 13.82 21.95 13.90 22.43 13.90C22.92 13.90 23.34 13.80 23.72 13.62C24.09 13.44 24.42 13.19 24.67 12.87C24.92 12.54 25.13 12.15 25.26 11.72C25.40 11.28 25.45 10.79 25.45 10.29C25.45 9.10 25.21 8.22 24.74 7.63ZM24.61 11.55C24.51 11.93 24.35 12.25 24.14 12.53C23.93 12.81 23.67 13.01 23.37 13.16C23.06 13.31 22.69 13.38 22.29 13.38C21.87 13.38 21.50 13.30 21.18 13.13C20.86 12.96 20.57 12.70 20.30 12.29L20.30 8.64C20.59 8.20 20.92 7.87 21.29 7.63C21.67 7.39 22.09 7.28 22.55 7.28C23.27 7.28 23.81 7.52 24.19 8.01C24.57 8.50 24.77 9.25 24.77 10.29C24.77 10.75 24.72 11.17 24.61 11.55ZM32.41 7.63C31.93 7.04 31.26 6.73 30.41 6.73C29.89 6.73 29.44 6.86 29.02 7.11C28.62 7.36 28.25 7.69 27.94 8.11L27.87 7.03C27.87 6.96 27.86 6.92 27.82 6.89C27.78 6.86 27.72 6.86 27.66 6.86L27.30 6.86L26.29 6.86L26.29 7.13C26.29 7.28 26.39 7.36 26.57 7.38L26.64 7.38C26.67 7.38 26.71 7.39 26.75 7.39L26.96 7.39C27.06 7.39 27.17 7.41 27.30 7.41L27.30 15.72C27.15 15.72 27.01 15.75 26.89 15.75L26.66 15.75L26.57 15.75C26.39 15.76 26.29 15.85 26.29 16.00L26.29 16.28L27.30 16.28L27.97 16.28L28.98 16.28L28.98 16.00C28.98 15.85 28.88 15.76 28.70 15.75L28.63 15.75L28.52 15.75C28.48 15.75 28.41 15.74 28.31 15.74C28.21 15.74 28.10 15.72 27.97 15.72L27.97 12.88C28.22 13.22 28.52 13.48 28.87 13.65C29.22 13.82 29.62 13.90 30.10 13.90C30.59 13.90 31.01 13.80 31.39 13.62C31.77 13.44 32.09 13.19 32.34 12.87C32.59 12.54 32.80 12.15 32.93 11.72C33.07 11.28 33.12 10.79 33.12 10.29C33.12 9.10 32.89 8.22 32.41 7.63ZM32.28 11.55C32.19 11.93 32.02 12.25 31.81 12.53C31.60 12.81 31.35 13.01 31.04 13.16C30.73 13.31 30.37 13.38 29.96 13.38C29.54 13.38 29.18 13.30 28.85 13.13C28.53 12.96 28.24 12.70 27.97 12.29L27.97 8.64C28.27 8.20 28.59 7.87 28.97 7.63C29.34 7.39 29.76 7.28 30.23 7.28C30.94 7.28 31.49 7.52 31.86 8.01C32.24 8.50 32.44 9.25 32.44 10.29C32.44 10.75 32.40 11.17 32.28 11.55ZM40.75 6.86L40.24 6.86L38.84 6.86L38.84 7.13C38.84 7.28 38.93 7.36 39.12 7.38L39.19 7.38C39.21 7.38 39.24 7.39 39.28 7.39L39.49 7.39C39.59 7.39 39.70 7.41 39.83 7.41L37.69 12.45L37.60 12.66C37.58 12.73 37.56 12.80 37.53 12.87C37.52 12.80 37.48 12.73 37.46 12.66C37.44 12.59 37.42 12.52 37.39 12.45L35.22 7.41C35.38 7.41 35.52 7.39 35.63 7.39C35.74 7.39 35.83 7.38 35.85 7.38L35.94 7.38C36.12 7.36 36.22 7.28 36.22 7.13L36.22 6.86L34.80 6.86L34.80 6.86L34.24 6.86L33.78 6.86L33.78 7.13C33.78 7.28 33.88 7.36 34.06 7.38C34.06 7.38 34.20 7.38 34.48 7.39L37.20 13.57L35.97 16.28L36.44 16.28C36.53 16.28 36.60 16.25 36.64 16.21C36.68 16.17 36.72 16.13 36.75 16.06L40.52 7.39L40.77 7.39C40.85 7.39 40.89 7.38 40.92 7.38L40.99 7.38C41.17 7.36 41.27 7.28 41.27 7.13L41.27 6.86ZM57.58 4.44C57.76 4.42 57.86 4.34 57.86 4.19L57.86 3.92L56.69 3.92L56.18 3.92C56.11 3.92 56.07 3.92 56.03 3.93C55.99 3.95 55.96 3.99 55.92 4.05L52.02 10.92C51.98 10.99 51.95 11.06 51.93 11.13C51.90 11.20 51.87 11.28 51.84 11.35C51.79 11.20 51.73 11.06 51.66 10.93L47.66 4.05C47.61 3.99 47.59 3.95 47.54 3.93C47.50 3.92 47.46 3.92 47.39 3.92L46.90 3.92L45.71 3.92L45.71 4.19C45.71 4.34 45.81 4.42 45.99 4.44L46.13 4.44C46.20 4.44 46.30 4.45 46.44 4.45C46.58 4.45 46.73 4.47 46.90 4.47L46.90 13.26C46.73 13.26 46.58 13.27 46.44 13.27C46.30 13.27 46.20 13.29 46.13 13.29L45.99 13.29C45.81 13.30 45.71 13.38 45.71 13.54L45.71 13.82L46.90 13.82L47.52 13.82L48.73 13.82L48.73 13.54C48.73 13.38 48.64 13.30 48.45 13.29L48.31 13.29C48.24 13.29 48.13 13.27 47.99 13.27C47.85 13.27 47.68 13.26 47.52 13.26L47.52 5.38C47.52 5.25 47.52 5.12 47.50 4.98L51.51 11.91C51.58 12.04 51.67 12.10 51.79 12.10L51.90 12.10C52.02 12.10 52.11 12.04 52.18 11.91L56.07 4.98C56.06 5.12 56.06 5.25 56.06 5.38L56.06 13.26C55.89 13.26 55.72 13.27 55.58 13.27C55.44 13.27 55.33 13.29 55.26 13.29L55.12 13.29C54.94 13.30 54.84 13.38 54.84 13.54L54.84 13.82L56.06 13.82L56.69 13.82L57.86 13.82L57.86 13.54C57.86 13.38 57.76 13.30 57.58 13.29L57.46 13.29C57.39 13.29 57.27 13.27 57.13 13.27C56.99 13.27 56.85 13.26 56.69 13.26L56.69 4.47C56.85 4.47 56.99 4.45 57.13 4.45C57.27 4.45 57.39 4.44 57.46 4.44ZM62.23 6.73C61.73 6.73 61.28 6.83 60.89 7.00C60.49 7.17 60.16 7.41 59.88 7.71C59.60 8.02 59.40 8.40 59.26 8.85C59.12 9.30 59.04 9.79 59.04 10.33C59.04 10.88 59.12 11.37 59.26 11.80C59.40 12.24 59.60 12.63 59.88 12.94C60.16 13.24 60.49 13.48 60.89 13.65C61.28 13.82 61.73 13.90 62.23 13.90C62.73 13.90 63.17 13.82 63.56 13.65C63.95 13.48 64.29 13.24 64.55 12.94C64.82 12.63 65.04 12.24 65.18 11.80C65.32 11.37 65.39 10.88 65.39 10.33C65.39 9.79 65.32 9.30 65.18 8.85C65.04 8.40 64.82 8.02 64.55 7.71C64.29 7.41 63.95 7.17 63.56 7.00C63.17 6.83 62.73 6.73 62.23 6.73ZM62.23 13.38C61.81 13.38 61.45 13.31 61.14 13.17C60.83 13.03 60.56 12.82 60.35 12.56C60.14 12.29 60.00 11.97 59.89 11.59C59.78 11.21 59.74 10.79 59.74 10.33C59.74 9.87 59.78 9.45 59.89 9.07C60.00 8.69 60.14 8.37 60.35 8.11C60.56 7.84 60.83 7.62 61.14 7.48C61.45 7.34 61.81 7.27 62.23 7.27C62.65 7.27 63.00 7.34 63.31 7.48C63.62 7.62 63.88 7.84 64.09 8.11C64.30 8.37 64.46 8.69 64.55 9.07C64.65 9.45 64.71 9.87 64.71 10.33C64.71 10.79 64.65 11.21 64.55 11.59C64.46 11.97 64.30 12.29 64.09 12.56C63.88 12.82 63.62 13.03 63.31 13.17C63.00 13.31 62.65 13.38 62.23 13.38ZM72.35 7.63C71.88 7.04 71.20 6.73 70.35 6.73C69.85 6.73 69.38 6.86 68.98 7.10C68.57 7.34 68.22 7.66 67.91 8.06L67.90 3.63L67.24 3.63L66.23 3.63L66.23 3.91C66.23 4.06 66.32 4.14 66.50 4.16L66.58 4.16C66.61 4.16 66.64 4.17 66.68 4.17L66.89 4.17C66.99 4.17 67.12 4.19 67.24 4.19L67.24 13.16L67.24 13.51C68.47 13.78 69.40 13.90 70.03 13.90C70.52 13.90 70.95 13.80 71.33 13.62C71.71 13.44 72.02 13.19 72.28 12.87C72.55 12.54 72.73 12.15 72.87 11.72C73.01 11.28 73.07 10.79 73.07 10.29C73.07 9.10 72.83 8.22 72.35 7.63ZM72.23 11.55C72.11 11.93 71.96 12.26 71.75 12.53C71.54 12.81 71.29 13.01 70.98 13.16C70.67 13.31 70.31 13.38 69.90 13.38C69.54 13.38 68.87 13.29 67.90 13.09L67.90 8.62C68.19 8.20 68.53 7.87 68.91 7.63C69.29 7.39 69.69 7.27 70.15 7.27C70.87 7.27 71.43 7.52 71.81 8.01C72.18 8.50 72.38 9.25 72.38 10.29C72.38 10.75 72.34 11.17 72.23 11.55ZM75.19 4.89C75.25 4.94 75.32 4.98 75.39 5.01C75.46 5.04 75.54 5.07 75.63 5.07C75.71 5.07 75.80 5.04 75.87 5.01C75.94 4.98 76.01 4.94 76.06 4.89C76.12 4.83 76.17 4.76 76.20 4.69C76.23 4.62 76.26 4.54 76.26 4.45C76.26 4.37 76.23 4.30 76.20 4.21C76.17 4.14 76.12 4.07 76.06 4.02C76.01 3.96 75.94 3.91 75.87 3.88C75.80 3.85 75.71 3.84 75.63 3.84C75.54 3.84 75.46 3.85 75.39 3.88C75.32 3.91 75.25 3.96 75.19 4.02C75.14 4.07 75.10 4.14 75.07 4.21C75.04 4.28 75.01 4.37 75.01 4.45C75.01 4.54 75.04 4.62 75.07 4.69C75.10 4.76 75.14 4.83 75.19 4.89ZM76.69 13.29L76.62 13.29L76.51 13.29C76.47 13.29 76.40 13.27 76.30 13.27C76.20 13.27 76.09 13.26 75.96 13.26L75.96 6.85L75.29 6.85L74.28 6.85L74.28 7.13C74.28 7.28 74.38 7.36 74.56 7.38L74.63 7.38C74.66 7.38 74.70 7.39 74.75 7.39L74.96 7.39C75.05 7.39 75.17 7.41 75.29 7.41L75.29 13.26C75.14 13.26 75.00 13.29 74.89 13.29L74.65 13.29L74.56 13.29C74.38 13.30 74.28 13.38 74.28 13.54L74.28 13.82L75.29 13.82L75.96 13.82L76.97 13.82L76.97 13.54C76.97 13.38 76.87 13.30 76.69 13.29ZM80.63 13.29L80.56 13.29L80.44 13.29C80.40 13.29 80.33 13.27 80.23 13.27C80.14 13.27 80.02 13.26 79.90 13.26L79.90 3.63L79.23 3.63L78.22 3.63L78.22 3.91C78.22 4.06 78.32 4.14 78.50 4.16L78.57 4.16C78.60 4.16 78.64 4.17 78.68 4.17L78.89 4.17C78.99 4.17 79.10 4.19 79.23 4.19L79.23 13.26C79.07 13.26 78.93 13.29 78.82 13.29L78.58 13.29L78.50 13.29C78.32 13.30 78.22 13.38 78.22 13.54L78.22 13.82L79.23 13.82L79.90 13.82L80.91 13.82L80.91 13.54C80.91 13.38 80.81 13.30 80.63 13.29ZM85.12 6.73C84.63 6.73 84.18 6.83 83.79 7.00C83.40 7.17 83.08 7.41 82.81 7.71C82.54 8.02 82.33 8.39 82.19 8.81C82.05 9.23 81.97 9.69 81.97 10.19C81.97 10.78 82.05 11.31 82.21 11.77C82.36 12.24 82.57 12.61 82.85 12.94C83.13 13.26 83.47 13.50 83.86 13.66C84.25 13.83 84.69 13.90 85.16 13.90C85.43 13.90 85.69 13.89 85.95 13.83C86.20 13.78 86.45 13.71 86.67 13.62C86.90 13.54 87.11 13.44 87.29 13.31C87.47 13.19 87.63 13.06 87.74 12.92L87.56 12.70C87.53 12.66 87.47 12.63 87.42 12.63C87.37 12.63 87.29 12.66 87.19 12.74C87.09 12.82 86.95 12.91 86.77 13.01C86.60 13.10 86.38 13.17 86.13 13.26C85.88 13.34 85.57 13.38 85.22 13.38C84.83 13.38 84.48 13.31 84.15 13.17C83.83 13.03 83.57 12.84 83.34 12.57C83.12 12.31 82.95 11.97 82.82 11.58C82.70 11.19 82.64 10.71 82.64 10.19L82.64 10.07L87.67 10.07C87.74 10.07 87.78 10.05 87.81 10.01C87.84 9.97 87.86 9.90 87.86 9.80C87.86 9.31 87.79 8.88 87.65 8.50C87.51 8.12 87.33 7.78 87.08 7.53C86.84 7.28 86.55 7.08 86.21 6.94C85.88 6.80 85.51 6.73 85.12 6.73ZM85.13 7.24C85.46 7.24 85.74 7.29 86.00 7.41C86.27 7.52 86.49 7.67 86.67 7.88C86.86 8.09 87.01 8.33 87.11 8.62C87.21 8.92 87.26 9.25 87.26 9.63L82.67 9.63C82.71 9.27 82.80 8.93 82.92 8.64C83.05 8.34 83.22 8.09 83.43 7.88C83.64 7.67 83.89 7.52 84.17 7.41C84.45 7.29 84.77 7.24 85.13 7.24Z"></path></g><defs data-v-fde0c5aa=""><!----></defs><g data-v-fde0c5aa="" id="1fa77292-1b8f-4836-ad03-d5c9b1e3bba1" stroke="none" fill="#CD8B7C" transform="matrix(0.5641357844712249,0,0,0.5641357844712249,121.79321077643874,86.44243696001669)"><path d="M82 83.4l-17.6-72c-.1-.3-.2-.7-.4-1-.2-.3-.4-.6-.7-.8-.3-.3-.6-.5-1-.6-.3-.2-.7-.3-1-.3L22.6 5c-.4 0-.8 0-1.2.1-.4.1-.7.3-.9.5-.2.2-.4.4-.5.7v-.1.2c2.8 19.1 11.9 81.4 12.1 82.9.2 1.4 1.2 2.9 3.1 2.9 1.4 0 27.5-3.6 46.6-6.3v-.1c.2-.3.3-.7.3-1.1 0-.4 0-.9-.1-1.3zm-19.9-.6c-.1.6-.3 1.2-.6 1.7s-.7 1-1.2 1.3c-.5.3-1.1.6-1.7.6-.6.1-1.3 0-1.9-.2-.6-.2-1.2-.5-1.7-.9s-1-.9-1.3-1.5c-.4-.6-.6-1.3-.7-2-.1-.7-.1-1.4 0-2.1.1-.6.3-1.2.7-1.7.3-.5.7-.9 1.2-1.2.5-.3 1.1-.5 1.7-.6.6-.1 1.2 0 1.8.2.6.2 1.1.5 1.6.9s.9.9 1.3 1.5c.3.6.6 1.2.7 1.9.2.8.2 1.5.1 2.1zm-28.2-9.1L24 8.8 61.5 12l13.8 58-41.4 3.7zM35.2 93c-2.4 0-3.7-1.9-3.9-3.6-.2-1.4-8.9-61.3-11.9-81.6l-1.3 2.9c0 .1-.1.2-.1.3 0 .1 0 .2-.1.3v.6l11 79.8c.1.5.2 1 .5 1.4.2.4.6.8.9 1.1.4.3.8.5 1.2.6.5.2.9.2 1.4.2l42.7-6.4h.4l4.5-1.5h-.1c.2 0 .3-.1.4-.2C65.2 89.1 36.7 93 35.2 93zm45.1-5.9h-.2-.1.3z"></path></g><defs data-v-fde0c5aa=""><!----></defs><g data-v-fde0c5aa="" id="47fbfa30-ae39-41da-897e-70e36dbeefd3" fill="#CD8B7C" transform="matrix(0.497131931166348,0,0,0.497131931166348,52.24149140527554,204.3288535912672)"><path d="M0.52 3.51C0.52 3.75 0.60 3.79 0.77 3.79L1.62 3.77C1.68 3.77 1.74 5.52 1.74 7.11L1.74 11.63C1.74 11.93 1.72 12.18 1.69 12.18L0.97 12.18C0.74 12.18 0.67 12.19 0.67 12.39C0.67 12.63 0.70 12.68 0.90 12.68C1.02 12.68 1.97 12.64 2.39 12.64C2.58 12.64 3.09 12.67 3.74 12.67C5.29 12.67 7.70 12.43 7.70 10.23C7.70 8.27 5.88 7.94 5.19 7.84C5.11 7.83 5.10 7.83 5.10 7.81C5.10 7.80 5.14 7.78 5.21 7.76C5.85 7.52 7.29 6.90 7.29 5.54C7.29 3.81 5.82 3.25 4.14 3.25C3.57 3.25 2.97 3.29 2.42 3.29C2.00 3.29 0.99 3.26 0.77 3.26C0.59 3.26 0.52 3.28 0.52 3.51ZM2.97 8.19C2.97 8.12 2.97 8.08 3.08 8.08L3.56 8.08C4.17 8.08 4.82 8.09 5.19 8.22C6.06 8.51 6.38 9.16 6.38 10.14C6.38 11.17 5.92 12.18 3.91 12.18L3.07 12.18C2.98 12.18 2.97 9.02 2.97 8.19ZM2.97 7.59L2.97 6.92C2.97 5.87 2.98 3.71 3.02 3.68C3.08 3.65 3.39 3.63 3.60 3.63C5.01 3.63 6.03 4.41 6.03 5.77C6.03 6.92 5.31 7.46 4.68 7.66C4.59 7.69 4.49 7.70 4.41 7.70C4.33 7.70 4.19 7.69 3.95 7.69L3.15 7.69C2.97 7.69 2.97 7.67 2.97 7.59ZM15.81 3.51C15.81 3.75 15.89 3.77 16.06 3.77L16.59 3.77C16.65 3.77 16.65 4.12 16.65 4.55C16.65 5.66 16.63 8.96 16.63 9.42C16.63 11.13 16.88 12.80 19.74 12.80C20.82 12.80 21.98 12.38 22.64 12.00C22.89 11.86 23.18 11.72 23.27 11.72C23.53 11.72 23.80 12.74 24.14 12.74C24.46 12.74 24.47 12.35 24.47 12.25C24.47 11.96 24.53 10.08 24.57 8.16C24.63 6.12 24.61 3.77 24.72 3.77L25.05 3.77C25.27 3.77 25.34 3.75 25.34 3.56C25.34 3.32 25.30 3.26 25.10 3.26C24.96 3.26 24.43 3.30 24.01 3.30C23.59 3.30 22.79 3.26 22.57 3.26C22.39 3.26 22.29 3.28 22.29 3.51C22.29 3.75 22.40 3.77 22.57 3.77L23.27 3.77C23.34 3.77 23.35 4.30 23.35 4.87L23.35 9.14C23.35 11.19 23.35 11.12 23.02 11.34C22.62 11.61 21.81 12.08 20.64 12.08C18.66 12.08 17.86 11.17 17.86 9.41C17.86 8.82 17.93 3.77 18.05 3.77L18.96 3.77C19.18 3.77 19.22 3.75 19.22 3.56C19.22 3.32 19.21 3.26 19.01 3.26C18.69 3.26 17.81 3.30 17.39 3.30C16.97 3.30 16.28 3.26 16.06 3.26C15.88 3.26 15.81 3.28 15.81 3.51ZM32.96 3.44C32.96 3.68 33.04 3.70 33.21 3.70L33.61 3.70C33.74 3.70 35.99 7.74 36.40 8.50C36.46 8.60 36.50 8.65 36.50 8.81C36.50 10.50 36.48 12.18 36.36 12.18L35.64 12.18C35.42 12.18 35.38 12.19 35.38 12.39C35.38 12.63 35.39 12.68 35.59 12.68C35.78 12.68 36.60 12.64 37.18 12.64C38.01 12.64 38.54 12.68 38.86 12.68C39.03 12.68 39.06 12.61 39.06 12.40C39.06 12.24 39.03 12.18 38.86 12.18L37.90 12.18C37.80 12.18 37.77 9.72 37.77 8.22C37.77 8.18 37.77 8.15 37.81 8.09C38.36 7.22 40.31 3.70 40.38 3.70L40.85 3.70C41.02 3.70 41.12 3.68 41.12 3.44C41.12 3.22 41.03 3.19 40.85 3.19C40.63 3.19 40.39 3.23 39.79 3.23C39.20 3.23 38.86 3.19 38.70 3.19C38.50 3.19 38.46 3.25 38.46 3.49C38.46 3.68 38.53 3.70 38.75 3.70L39.48 3.70C39.49 3.70 39.51 3.71 39.51 3.74C39.51 4.05 37.94 6.99 37.56 7.71C37.45 7.92 37.45 7.88 37.34 7.67C36.93 6.89 35.64 4.56 35.35 3.85C35.29 3.71 35.28 3.70 35.46 3.70L36.29 3.70C36.51 3.70 36.54 3.68 36.54 3.49C36.54 3.25 36.50 3.19 36.34 3.19C36.11 3.19 35.49 3.23 34.69 3.23C33.88 3.23 33.39 3.19 33.21 3.19C33.03 3.19 32.96 3.21 32.96 3.44ZM58.39 12.39C58.39 12.63 58.39 12.68 58.59 12.68C58.76 12.68 59.08 12.64 59.65 12.64C60.27 12.64 60.82 12.68 60.97 12.68C61.14 12.68 61.14 12.61 61.14 12.40C61.14 12.24 61.14 12.18 60.97 12.18L59.89 12.18C59.89 12.18 59.88 12.18 59.88 12.17C59.89 11.87 60.66 9.90 61.01 9.02C61.08 8.83 61.10 8.79 61.31 8.79L64.13 8.79C64.27 8.79 64.27 8.81 64.34 9.03C64.61 9.77 65.32 11.89 65.32 12.17C65.32 12.18 65.31 12.18 65.31 12.18L64.54 12.18C64.32 12.18 64.30 12.19 64.30 12.39C64.30 12.63 64.32 12.68 64.48 12.68C64.81 12.68 65.67 12.64 66.09 12.64C66.51 12.64 67.19 12.68 67.40 12.68C67.54 12.68 67.55 12.61 67.55 12.40C67.55 12.24 67.54 12.18 67.40 12.18L66.91 12.18C66.81 12.18 65.79 9.34 65.23 7.78L63.55 3.07C63.53 3.00 63.46 2.94 63.38 2.94C63.25 2.94 63.15 3.16 63.07 3.35C62.92 3.71 62.68 3.84 62.57 4.13L61.08 7.57C60.90 8.01 59.19 12.18 59.07 12.18L58.65 12.18C58.42 12.18 58.39 12.19 58.39 12.39ZM61.29 8.33C61.29 8.30 61.32 8.23 61.36 8.13L62.73 4.77C62.78 4.66 62.80 4.61 62.83 4.61C62.85 4.61 62.86 4.63 62.90 4.77L64.06 8.18C64.09 8.25 64.11 8.29 64.11 8.32C64.11 8.36 64.08 8.37 63.98 8.37L61.47 8.37C61.29 8.37 61.29 8.34 61.29 8.33ZM75.31 12.39C75.31 12.63 75.32 12.68 75.52 12.68C75.70 12.68 76.08 12.64 76.69 12.64C77.32 12.64 77.88 12.68 78.20 12.68C78.37 12.68 78.37 12.61 78.37 12.40C78.37 12.24 78.37 12.18 78.20 12.18L77.00 12.18C76.96 12.18 76.94 11.54 76.94 10.79C76.94 9.46 76.96 7.48 76.96 5.99C76.96 5.25 76.96 4.84 76.97 4.28C76.97 4.02 77.04 4.14 77.17 4.28L84.06 12.66C84.14 12.75 84.22 12.89 84.34 12.89C84.45 12.89 84.52 12.77 84.52 12.54C84.52 12.39 84.69 6.65 84.70 4.48C84.70 4.06 84.73 3.70 84.76 3.70L85.39 3.70C85.61 3.70 85.67 3.68 85.67 3.49C85.67 3.25 85.67 3.19 85.47 3.19C85.27 3.19 84.84 3.23 84.28 3.23C83.66 3.23 82.87 3.19 82.77 3.19C82.60 3.19 82.60 3.26 82.60 3.47C82.60 3.64 82.60 3.70 82.77 3.70L84.07 3.70C84.08 3.70 84.08 4.33 84.08 4.44C84.08 5.85 84.11 8.33 84.11 9.70L84.11 10.29C84.11 10.57 84.10 10.65 83.87 10.37L78.19 3.39C78.08 3.25 78.05 3.19 77.88 3.19C77.80 3.19 77.42 3.23 77.11 3.23C76.82 3.23 75.74 3.19 75.54 3.19C75.38 3.19 75.35 3.26 75.35 3.47C75.35 3.64 75.38 3.70 75.54 3.70L76.45 3.70C76.45 4.17 76.41 8.53 76.34 10.79C76.31 11.69 76.33 12.18 76.22 12.18L75.57 12.18C75.35 12.18 75.31 12.19 75.31 12.39ZM93.63 12.46C93.63 12.63 93.65 12.70 93.83 12.70C93.98 12.70 95.21 12.64 95.61 12.64C96.46 12.64 97.34 12.70 98.20 12.70C100.81 12.70 103.21 11.07 103.21 7.91C103.21 4.89 100.87 3.07 97.83 3.07C97.27 3.07 96.01 3.23 94.98 3.23C94.50 3.23 94.04 3.22 93.98 3.22C93.80 3.22 93.79 3.32 93.79 3.49C93.79 3.68 93.86 3.70 93.98 3.70L94.95 3.67C94.98 3.67 94.98 4.20 94.98 4.72C94.98 5.91 94.89 12.21 94.81 12.21L93.91 12.21C93.73 12.21 93.63 12.22 93.63 12.46ZM96.21 11.40C96.21 9.46 96.21 7.52 96.22 5.60C96.22 5.03 96.26 3.61 96.31 3.60C96.60 3.53 97.19 3.51 97.54 3.51C100.10 3.51 101.71 5.75 101.71 7.73C101.71 8.95 101.67 12.25 96.99 12.25C96.73 12.25 96.32 12.25 96.22 12.21C96.21 12.19 96.21 11.79 96.21 11.40ZM121.11 3.51C121.11 3.72 121.18 3.79 121.38 3.79L122.19 3.77C122.29 3.77 122.33 6.61 122.33 8.55L122.33 10.42C122.33 11.30 122.32 12.18 122.28 12.18L121.67 12.18C121.45 12.18 121.38 12.19 121.38 12.39C121.38 12.63 121.42 12.68 121.62 12.68C121.74 12.68 122.57 12.64 122.99 12.64C123.41 12.64 124.18 12.68 124.50 12.68C124.67 12.68 124.70 12.61 124.70 12.40C124.70 12.24 124.67 12.18 124.50 12.18L123.69 12.18C123.62 12.18 123.54 9.18 123.54 8.37C123.54 8.30 123.54 8.26 123.65 8.26C124.04 8.26 124.64 8.27 124.94 8.27C127.18 8.32 127.32 10.00 127.32 11.68L127.32 12.49C127.32 12.61 127.37 12.64 127.47 12.64C127.47 12.64 128.91 12.68 129.39 12.68C129.56 12.68 129.61 12.64 129.61 12.53C129.61 12.24 129.56 12.18 129.40 12.18L128.76 12.18C128.66 12.18 128.63 12.14 128.60 11.31C128.52 8.99 127.15 8.34 126.24 8.05C126.10 8.01 126.13 8.01 126.24 7.95C126.83 7.69 128.14 6.94 128.14 5.63C128.14 3.63 126.45 3.21 125.05 3.21C124.73 3.21 123.44 3.29 123.02 3.29C122.60 3.29 121.62 3.26 121.39 3.26C121.21 3.26 121.11 3.28 121.11 3.51ZM123.54 7.80L123.54 4.40C123.54 4.05 123.56 3.68 123.61 3.68C123.82 3.65 124.10 3.65 124.32 3.65C125.62 3.65 126.87 4.47 126.87 5.82C126.87 6.99 126.32 7.57 125.66 7.88C125.62 7.90 125.58 7.90 125.51 7.90C125.03 7.88 124.32 7.88 123.72 7.87C123.55 7.87 123.54 7.85 123.54 7.80ZM137.09 12.39C137.09 12.63 137.12 12.68 137.31 12.68C137.63 12.68 138.60 12.64 139.02 12.64C139.44 12.64 143.95 12.68 144.27 12.68C144.40 12.68 144.55 12.66 144.55 12.49C144.55 12.07 144.59 11.23 144.59 10.53C144.59 10.39 144.44 10.39 144.31 10.39C144.20 10.39 144.07 10.39 144.07 10.51C144.06 11.06 144.06 11.41 144.03 11.76C144.00 12.01 144.00 12.04 143.91 12.04C143.75 12.04 141.12 12.08 139.62 12.08C139.55 12.08 139.51 10.11 139.47 8.26C139.47 8.06 139.51 8.09 139.65 8.09L141.93 8.09C142.63 8.09 142.66 8.20 142.66 8.30L142.66 9.00C142.66 9.14 142.84 9.14 142.95 9.14C143.05 9.14 143.18 9.13 143.18 9.02C143.18 8.83 143.15 8.33 143.15 7.83C143.15 7.32 143.18 6.83 143.18 6.71C143.18 6.59 143.04 6.58 142.94 6.58C142.83 6.58 142.66 6.59 142.66 6.72L142.66 7.45C142.66 7.62 142.21 7.63 141.93 7.63L139.59 7.63C139.48 7.63 139.47 7.63 139.47 7.45C139.45 6.75 139.44 6.06 139.44 5.46C139.44 5.12 139.44 3.71 139.52 3.71C140.76 3.71 143.26 3.75 143.26 3.81C143.26 3.99 143.22 4.83 143.22 4.89C143.22 5.04 143.29 5.10 143.47 5.10C143.67 5.10 143.74 5.08 143.74 4.94C143.74 3.85 143.79 3.36 143.79 3.09C143.79 2.91 143.71 2.90 143.51 2.90C143.32 2.90 143.32 2.95 143.29 3.11C143.28 3.25 143.35 3.25 142.44 3.25C141.82 3.25 139.68 3.29 138.91 3.29C138.42 3.29 137.48 3.25 137.38 3.25C137.26 3.25 137.20 3.30 137.20 3.49C137.20 3.72 137.27 3.74 137.44 3.74L138.10 3.74C138.15 3.74 138.22 4.79 138.22 5.71C138.22 5.80 138.28 8.27 138.28 9.83L138.28 11.17C138.28 11.84 138.25 12.18 138.22 12.18L137.37 12.18C137.14 12.18 137.09 12.21 137.09 12.39ZM152.56 12.39C152.56 12.63 152.57 12.68 152.77 12.68C152.95 12.68 153.33 12.64 153.94 12.64C154.57 12.64 155.13 12.68 155.46 12.68C155.62 12.68 155.62 12.61 155.62 12.40C155.62 12.24 155.62 12.18 155.46 12.18L154.25 12.18C154.21 12.18 154.20 11.54 154.20 10.79C154.20 9.46 154.21 7.48 154.21 5.99C154.21 5.25 154.21 4.84 154.22 4.28C154.22 4.02 154.29 4.14 154.42 4.28L161.31 12.66C161.39 12.75 161.48 12.89 161.59 12.89C161.70 12.89 161.77 12.77 161.77 12.54C161.77 12.39 161.94 6.65 161.95 4.48C161.95 4.06 161.98 3.70 162.01 3.70L162.64 3.70C162.86 3.70 162.92 3.68 162.92 3.49C162.92 3.25 162.92 3.19 162.72 3.19C162.53 3.19 162.09 3.23 161.53 3.23C160.92 3.23 160.12 3.19 160.02 3.19C159.85 3.19 159.85 3.26 159.85 3.47C159.85 3.64 159.85 3.70 160.02 3.70L161.32 3.70C161.34 3.70 161.34 4.33 161.34 4.44C161.34 5.85 161.36 8.33 161.36 9.70L161.36 10.29C161.36 10.57 161.35 10.65 161.13 10.37L155.44 3.39C155.33 3.25 155.30 3.19 155.13 3.19C155.05 3.19 154.67 3.23 154.36 3.23C154.07 3.23 152.99 3.19 152.80 3.19C152.63 3.19 152.60 3.26 152.60 3.47C152.60 3.64 152.63 3.70 152.80 3.70L153.71 3.70C153.71 4.17 153.66 8.53 153.59 10.79C153.57 11.69 153.58 12.18 153.47 12.18L152.82 12.18C152.60 12.18 152.56 12.19 152.56 12.39ZM170.69 5.01C170.69 5.17 170.87 5.17 171.00 5.17C171.15 5.17 171.19 5.15 171.21 4.97L171.32 3.89C171.33 3.81 171.88 3.75 172.63 3.75L174.62 3.75C174.68 3.75 174.71 4.35 174.71 4.97C174.71 6.43 174.65 12.18 174.52 12.18L173.66 12.18C173.43 12.18 173.39 12.19 173.39 12.39C173.39 12.63 173.40 12.68 173.60 12.68C173.92 12.68 174.90 12.64 175.32 12.64C175.74 12.64 176.68 12.68 177.00 12.68C177.17 12.68 177.20 12.61 177.20 12.40C177.20 12.24 177.17 12.18 177.00 12.18L176.01 12.18C175.98 12.18 175.98 11.76 175.98 11.31C175.98 9.56 176.06 5.96 176.06 5.92C176.08 5.18 176.08 3.75 176.18 3.75L177.79 3.75C178.50 3.75 179.33 3.78 179.33 3.85C179.33 3.99 179.28 4.90 179.28 4.97C179.28 5.12 179.35 5.17 179.54 5.17C179.73 5.17 179.80 5.17 179.80 5.03C179.80 3.93 179.86 3.40 179.86 3.14C179.86 2.94 179.77 2.94 179.58 2.94C179.42 2.94 179.37 2.98 179.35 3.16C179.35 3.23 178.71 3.28 177.87 3.28L172.87 3.28C172.21 3.28 171.40 3.28 171.40 3.21L171.40 3.07C171.40 2.94 171.28 2.94 171.18 2.94C170.95 2.94 170.93 3.00 170.91 3.19C170.86 3.89 170.69 4.97 170.69 5.01ZM197.34 12.39C197.34 12.63 197.37 12.68 197.57 12.68C197.81 12.68 198.31 12.64 198.73 12.64C199.15 12.64 199.64 12.68 199.96 12.68C200.13 12.68 200.16 12.61 200.16 12.40C200.16 12.24 200.13 12.18 199.96 12.18L199.00 12.18C198.94 12.18 198.93 11.54 198.93 10.79C198.93 8.96 198.97 6.13 199.04 4.28C199.07 3.88 199.09 3.91 199.23 4.27L202.50 12.32C202.59 12.54 202.66 12.74 202.78 12.74C202.87 12.74 202.94 12.63 203.03 12.45C203.36 11.79 203.55 11.75 203.81 11.09L206.40 4.47C206.53 4.16 206.57 4.02 206.58 4.47C206.61 5.66 206.65 8.47 206.65 9.74C206.65 10.99 206.61 12.18 206.56 12.18L205.93 12.18C205.70 12.18 205.63 12.19 205.63 12.39C205.63 12.63 205.66 12.68 205.86 12.68C206.05 12.68 206.75 12.64 207.35 12.64C207.77 12.64 208.53 12.68 208.85 12.68C209.02 12.68 209.05 12.61 209.05 12.40C209.05 12.22 208.99 12.18 208.82 12.18L208.10 12.18C207.98 12.18 207.89 8.44 207.89 6.03L207.89 4.77C207.89 4.17 207.91 3.77 207.96 3.70L208.61 3.70C208.84 3.70 208.88 3.68 208.88 3.49C208.88 3.25 208.87 3.19 208.67 3.19C208.35 3.19 207.66 3.23 207.24 3.23L206.57 3.23C206.35 3.23 206.32 3.29 206.21 3.58L203.46 10.72C203.38 10.95 203.35 11.02 203.24 10.74L200.30 3.40C200.23 3.22 200.17 3.19 200.03 3.19C199.95 3.19 199.46 3.23 199.15 3.23C198.65 3.23 197.79 3.19 197.60 3.19C197.46 3.19 197.46 3.26 197.46 3.47C197.46 3.64 197.46 3.70 197.60 3.70L198.30 3.70C198.56 3.70 198.56 3.72 198.56 3.84C198.56 4.82 198.35 9.94 198.31 10.79C198.27 11.55 198.27 12.18 198.21 12.18L197.64 12.18C197.41 12.18 197.34 12.19 197.34 12.39ZM217.01 8.15C217.01 11.17 219.35 12.80 221.61 12.80C224.39 12.80 226.37 10.89 226.37 8.06C226.37 5.33 224.62 3.11 221.82 3.11C219.21 3.11 217.01 5.10 217.01 8.15ZM218.41 7.77C218.41 5.64 219.70 3.58 221.68 3.58C223.92 3.58 224.99 5.81 224.99 7.94C224.99 10.08 223.89 12.32 221.62 12.32C219.63 12.32 218.41 10.28 218.41 7.77ZM234.47 3.51C234.47 3.75 234.56 3.79 234.72 3.79L235.58 3.77C235.63 3.77 235.69 5.52 235.69 7.11L235.69 11.63C235.69 11.93 235.68 12.18 235.65 12.18L234.92 12.18C234.70 12.18 234.63 12.19 234.63 12.39C234.63 12.63 234.65 12.68 234.85 12.68C234.98 12.68 235.93 12.64 236.35 12.64C236.53 12.64 237.05 12.67 237.69 12.67C239.25 12.67 241.65 12.43 241.65 10.23C241.65 8.27 239.83 7.94 239.15 7.84C239.06 7.83 239.05 7.83 239.05 7.81C239.05 7.80 239.09 7.78 239.16 7.76C239.81 7.52 241.25 6.90 241.25 5.54C241.25 3.81 239.78 3.25 238.10 3.25C237.52 3.25 236.92 3.29 236.38 3.29C235.96 3.29 234.95 3.26 234.72 3.26C234.54 3.26 234.47 3.28 234.47 3.51ZM236.92 8.19C236.92 8.12 236.92 8.08 237.03 8.08L237.51 8.08C238.13 8.08 238.77 8.09 239.15 8.22C240.02 8.51 240.34 9.16 240.34 10.14C240.34 11.17 239.88 12.18 237.86 12.18L237.02 12.18C236.94 12.18 236.92 9.02 236.92 8.19ZM236.92 7.59L236.92 6.92C236.92 5.87 236.94 3.71 236.98 3.68C237.03 3.65 237.34 3.63 237.55 3.63C238.97 3.63 239.99 4.41 239.99 5.77C239.99 6.92 239.26 7.46 238.63 7.66C238.55 7.69 238.45 7.70 238.36 7.70C238.28 7.70 238.14 7.69 237.90 7.69L237.10 7.69C236.92 7.69 236.92 7.67 236.92 7.59ZM249.62 12.39C249.62 12.63 249.66 12.68 249.86 12.68C250.18 12.68 250.94 12.64 251.65 12.64C252.31 12.64 253.11 12.68 253.33 12.68C253.50 12.68 253.53 12.61 253.53 12.40C253.53 12.24 253.50 12.18 253.33 12.18L252.36 12.18C252.27 12.18 252.24 9.55 252.24 7.76L252.24 5.87C252.24 5.14 252.27 3.70 252.36 3.70L253.27 3.70C253.50 3.70 253.53 3.68 253.53 3.49C253.53 3.25 253.50 3.19 253.33 3.19C253.01 3.19 252.34 3.23 251.68 3.23C250.87 3.23 250.15 3.19 249.93 3.19C249.75 3.19 249.68 3.21 249.68 3.44C249.68 3.68 249.76 3.70 249.93 3.70L250.85 3.70C250.89 3.70 250.96 4.79 250.96 5.71L250.96 7.08C250.96 8.92 250.95 12.18 250.84 12.18L249.91 12.18C249.69 12.18 249.62 12.19 249.62 12.39ZM261.42 12.39C261.42 12.63 261.45 12.68 261.65 12.68C261.97 12.68 262.93 12.64 263.35 12.64C263.77 12.64 268.13 12.68 268.45 12.68C268.72 12.68 268.79 12.66 268.80 12.49C268.86 12.08 269.09 10.72 269.09 10.60C269.09 10.47 268.94 10.44 268.77 10.43C268.67 10.42 268.59 10.46 268.58 10.56L268.41 11.76C268.37 12.05 268.35 12.03 268.13 12.04C267.97 12.05 265.47 12.12 264.04 12.12C264.00 12.12 263.96 11.38 263.96 10.54L263.96 6.66C263.96 5.40 263.97 3.70 264.07 3.70L265.05 3.70C265.29 3.70 265.31 3.63 265.31 3.44C265.31 3.23 265.30 3.19 265.06 3.19C264.74 3.19 263.80 3.23 263.38 3.23C262.96 3.23 262.02 3.19 261.80 3.19C261.58 3.19 261.52 3.22 261.52 3.44C261.52 3.65 261.56 3.70 261.76 3.70L262.58 3.70C262.63 3.70 262.65 4.23 262.65 4.90L262.65 8.13C262.65 10.07 262.63 12.18 262.54 12.18L261.70 12.18C261.48 12.18 261.42 12.21 261.42 12.39ZM276.71 12.39C276.71 12.63 276.74 12.68 276.93 12.68C277.26 12.68 278.22 12.64 278.64 12.64C279.06 12.64 283.57 12.68 283.89 12.68C284.02 12.68 284.17 12.66 284.17 12.49C284.17 12.07 284.21 11.23 284.21 10.53C284.21 10.39 284.06 10.39 283.93 10.39C283.82 10.39 283.70 10.39 283.70 10.51C283.68 11.06 283.68 11.41 283.65 11.76C283.63 12.01 283.63 12.04 283.53 12.04C283.37 12.04 280.74 12.08 279.24 12.08C279.17 12.08 279.13 10.11 279.09 8.26C279.09 8.06 279.13 8.09 279.27 8.09L281.55 8.09C282.25 8.09 282.28 8.20 282.28 8.30L282.28 9.00C282.28 9.14 282.46 9.14 282.58 9.14C282.67 9.14 282.80 9.13 282.80 9.02C282.80 8.83 282.77 8.33 282.77 7.83C282.77 7.32 282.80 6.83 282.80 6.71C282.80 6.59 282.66 6.58 282.56 6.58C282.45 6.58 282.28 6.59 282.28 6.72L282.28 7.45C282.28 7.62 281.83 7.63 281.55 7.63L279.22 7.63C279.10 7.63 279.09 7.63 279.09 7.45C279.08 6.75 279.06 6.06 279.06 5.46C279.06 5.12 279.06 3.71 279.15 3.71C280.38 3.71 282.88 3.75 282.88 3.81C282.88 3.99 282.84 4.83 282.84 4.89C282.84 5.04 282.91 5.10 283.09 5.10C283.29 5.10 283.36 5.08 283.36 4.94C283.36 3.85 283.42 3.36 283.42 3.09C283.42 2.91 283.33 2.90 283.14 2.90C282.94 2.90 282.94 2.95 282.91 3.11C282.90 3.25 282.97 3.25 282.06 3.25C281.44 3.25 279.30 3.29 278.53 3.29C278.04 3.29 277.10 3.25 277.00 3.25C276.88 3.25 276.82 3.30 276.82 3.49C276.82 3.72 276.89 3.74 277.06 3.74L277.72 3.74C277.77 3.74 277.84 4.79 277.84 5.71C277.84 5.80 277.90 8.27 277.90 9.83L277.90 11.17C277.90 11.84 277.87 12.18 277.84 12.18L276.99 12.18C276.77 12.18 276.71 12.21 276.71 12.39ZM301.98 3.51C301.98 3.75 302.02 3.79 302.23 3.79L303.16 3.77C303.21 3.77 303.21 4.47 303.21 5.24L303.21 5.96C303.21 7.70 303.20 12.18 303.09 12.18L302.41 12.18C302.19 12.18 302.12 12.19 302.12 12.39C302.12 12.63 302.13 12.68 302.33 12.68C302.46 12.68 303.44 12.64 303.86 12.64C304.28 12.64 305.14 12.68 305.47 12.68C305.63 12.68 305.66 12.61 305.66 12.40C305.66 12.24 305.63 12.18 305.47 12.18L304.47 12.18C304.43 12.18 304.42 10.60 304.42 9.58L304.42 8.65C304.42 8.57 304.42 8.54 304.51 8.54C304.91 8.54 305.23 8.58 305.73 8.58C307.72 8.58 309.12 7.83 309.12 6.01C309.12 4.09 307.64 3.22 305.72 3.22C305.40 3.22 304.30 3.29 303.88 3.29C303.65 3.29 302.46 3.26 302.23 3.26C302.05 3.26 301.98 3.28 301.98 3.51ZM304.43 8.05L304.43 4.40C304.43 4.05 304.44 3.70 304.49 3.68C304.61 3.67 304.78 3.67 304.92 3.67C306.57 3.67 307.83 4.47 307.83 5.80C307.83 7.57 306.50 8.19 304.92 8.19C304.67 8.19 304.43 8.16 304.43 8.05ZM316.88 12.39C316.88 12.63 316.88 12.68 317.07 12.68C317.39 12.68 318.33 12.64 318.75 12.64C319.17 12.64 320.00 12.68 320.32 12.68C320.49 12.68 320.49 12.61 320.49 12.40C320.49 12.24 320.49 12.18 320.32 12.18L319.40 12.18C319.31 12.18 319.27 9.93 319.27 8.20C319.27 8.01 319.27 8.01 319.40 8.01L324.63 8.01C324.70 8.01 324.72 8.01 324.72 8.18L324.72 9.91C324.72 11.05 324.70 12.18 324.65 12.18L323.88 12.18C323.65 12.18 323.61 12.19 323.61 12.39C323.61 12.63 323.62 12.68 323.82 12.68C324.14 12.68 324.98 12.64 325.40 12.64C325.82 12.64 326.41 12.68 326.73 12.68C326.90 12.68 326.91 12.61 326.91 12.40C326.91 12.24 326.90 12.18 326.73 12.18L325.99 12.18C325.95 12.18 325.93 9.27 325.93 7.04C325.93 5.40 325.93 3.70 325.98 3.70L326.59 3.70C326.82 3.70 326.86 3.68 326.86 3.49C326.86 3.25 326.84 3.19 326.65 3.19C326.51 3.19 325.88 3.23 325.29 3.23C324.62 3.23 324.02 3.19 323.79 3.19C323.60 3.19 323.57 3.22 323.57 3.44C323.57 3.67 323.64 3.70 323.81 3.70L324.60 3.70C324.66 3.70 324.72 4.79 324.72 5.71L324.72 7.42C324.72 7.59 324.72 7.59 324.55 7.59L319.44 7.59C319.27 7.59 319.27 7.59 319.27 7.38C319.27 6.96 319.26 6.23 319.26 5.53C319.26 4.66 319.27 3.70 319.33 3.70L320.10 3.70C320.32 3.70 320.36 3.68 320.36 3.49C320.36 3.25 320.35 3.19 320.15 3.19C319.83 3.19 319.24 3.23 318.64 3.23C318.05 3.23 317.56 3.19 317.34 3.19C317.16 3.19 317.06 3.21 317.06 3.44C317.06 3.68 317.17 3.70 317.34 3.70L317.95 3.70C318.01 3.70 318.02 5.59 318.02 7.18L318.02 8.61C318.02 10.08 318.01 12.18 317.94 12.18L317.13 12.18C316.90 12.18 316.88 12.19 316.88 12.39ZM335.02 8.15C335.02 11.17 337.36 12.80 339.61 12.80C342.40 12.80 344.37 10.89 344.37 8.06C344.37 5.33 342.62 3.11 339.82 3.11C337.22 3.11 335.02 5.10 335.02 8.15ZM336.42 7.77C336.42 5.64 337.71 3.58 339.68 3.58C341.92 3.58 343.00 5.81 343.00 7.94C343.00 10.08 341.89 12.32 339.63 12.32C337.64 12.32 336.42 10.28 336.42 7.77ZM352.48 12.39C352.48 12.63 352.49 12.68 352.69 12.68C352.87 12.68 353.25 12.64 353.86 12.64C354.49 12.64 355.05 12.68 355.38 12.68C355.54 12.68 355.54 12.61 355.54 12.40C355.54 12.24 355.54 12.18 355.38 12.18L354.17 12.18C354.13 12.18 354.12 11.54 354.12 10.79C354.12 9.46 354.13 7.48 354.13 5.99C354.13 5.25 354.13 4.84 354.14 4.28C354.14 4.02 354.21 4.14 354.34 4.28L361.23 12.66C361.31 12.75 361.40 12.89 361.51 12.89C361.62 12.89 361.69 12.77 361.69 12.54C361.69 12.39 361.86 6.65 361.87 4.48C361.87 4.06 361.90 3.70 361.93 3.70L362.56 3.70C362.78 3.70 362.84 3.68 362.84 3.49C362.84 3.25 362.84 3.19 362.64 3.19C362.45 3.19 362.01 3.23 361.45 3.23C360.84 3.23 360.04 3.19 359.94 3.19C359.77 3.19 359.77 3.26 359.77 3.47C359.77 3.64 359.77 3.70 359.94 3.70L361.24 3.70C361.26 3.70 361.26 4.33 361.26 4.44C361.26 5.85 361.28 8.33 361.28 9.70L361.28 10.29C361.28 10.57 361.27 10.65 361.05 10.37L355.36 3.39C355.25 3.25 355.22 3.19 355.05 3.19C354.97 3.19 354.59 3.23 354.28 3.23C353.99 3.23 352.91 3.19 352.72 3.19C352.55 3.19 352.52 3.26 352.52 3.47C352.52 3.64 352.55 3.70 352.72 3.70L353.63 3.70C353.63 4.17 353.58 8.53 353.51 10.79C353.49 11.69 353.50 12.18 353.39 12.18L352.74 12.18C352.52 12.18 352.48 12.19 352.48 12.39ZM370.87 12.39C370.87 12.63 370.90 12.68 371.10 12.68C371.42 12.68 372.39 12.64 372.81 12.64C373.23 12.64 377.73 12.68 378.06 12.68C378.18 12.68 378.34 12.66 378.34 12.49C378.34 12.07 378.38 11.23 378.38 10.53C378.38 10.39 378.22 10.39 378.10 10.39C377.99 10.39 377.86 10.39 377.86 10.51C377.85 11.06 377.85 11.41 377.82 11.76C377.79 12.01 377.79 12.04 377.69 12.04C377.54 12.04 374.91 12.08 373.41 12.08C373.34 12.08 373.30 10.11 373.25 8.26C373.25 8.06 373.30 8.09 373.44 8.09L375.72 8.09C376.42 8.09 376.45 8.20 376.45 8.30L376.45 9.00C376.45 9.14 376.63 9.14 376.74 9.14C376.84 9.14 376.96 9.13 376.96 9.02C376.96 8.83 376.94 8.33 376.94 7.83C376.94 7.32 376.96 6.83 376.96 6.71C376.96 6.59 376.82 6.58 376.73 6.58C376.61 6.58 376.45 6.59 376.45 6.72L376.45 7.45C376.45 7.62 376.00 7.63 375.72 7.63L373.38 7.63C373.27 7.63 373.25 7.63 373.25 7.45C373.24 6.75 373.23 6.06 373.23 5.46C373.23 5.12 373.23 3.71 373.31 3.71C374.54 3.71 377.05 3.75 377.05 3.81C377.05 3.99 377.01 4.83 377.01 4.89C377.01 5.04 377.08 5.10 377.26 5.10C377.45 5.10 377.52 5.08 377.52 4.94C377.52 3.85 377.58 3.36 377.58 3.09C377.58 2.91 377.50 2.90 377.30 2.90C377.10 2.90 377.10 2.95 377.08 3.11C377.06 3.25 377.13 3.25 376.22 3.25C375.61 3.25 373.46 3.29 372.69 3.29C372.20 3.29 371.27 3.25 371.17 3.25C371.04 3.25 370.99 3.30 370.99 3.49C370.99 3.72 371.06 3.74 371.22 3.74L371.88 3.74C371.94 3.74 372.01 4.79 372.01 5.71C372.01 5.80 372.06 8.27 372.06 9.83L372.06 11.17C372.06 11.84 372.04 12.18 372.01 12.18L371.15 12.18C370.93 12.18 370.87 12.21 370.87 12.39ZM386.55 5.77C386.55 9.07 391.54 8.20 391.54 10.65C391.54 11.59 390.70 12.31 389.72 12.31C388.89 12.31 387.30 11.83 387.27 11.47L387.18 10.15C387.17 9.97 387.10 9.91 386.92 9.91L386.85 9.91C386.64 9.91 386.64 10.00 386.64 10.12C386.64 10.32 386.75 11.66 386.78 12.17C386.79 12.38 388.05 12.85 389.59 12.85C391.16 12.85 392.77 11.87 392.77 10.11C392.77 6.79 387.80 7.87 387.80 5.32C387.80 4.31 388.58 3.56 389.62 3.56C390.64 3.56 391.73 4.58 391.73 4.89C391.73 5.01 391.69 5.73 391.69 5.78C391.69 5.92 391.73 5.99 392.00 5.99C392.24 5.99 392.25 5.94 392.25 5.75C392.25 5.04 392.34 3.68 392.34 3.53C392.34 3.30 392.29 3.29 392.03 3.29C391.80 3.29 391.79 3.32 391.78 3.53C391.78 3.61 391.76 3.78 391.72 3.78C391.66 3.78 391.58 3.74 391.51 3.68C390.71 3.14 390.10 3.08 389.59 3.08C388.07 3.08 386.55 4.17 386.55 5.77Z"></path></g></svg>