<?xml version="1.0" standalone="no"?>
<!DOCTYPE svg PUBLIC "-//W3C//DTD SVG 20010904//EN"
 "http://www.w3.org/TR/2001/REC-SVG-20010904/DTD/svg10.dtd">
<svg version="1.0" xmlns="http://www.w3.org/2000/svg"
 width="653.000000pt" height="914.000000pt" viewBox="0 0 653.000000 914.000000"
 preserveAspectRatio="xMidYMid meet">

<g transform="translate(0.000000,914.000000) scale(0.100000,-0.100000)"
fill="#000000" stroke="none">
<path d="M1575 8605 c-5 -2 -66 -20 -135 -40 -69 -21 -141 -45 -161 -55 -46
-24 -108 -87 -138 -141 l-24 -44 27 25 c15 14 29 24 32 23 2 -1 9 -1 16 1 34
10 104 27 113 27 6 1 16 5 23 11 6 6 12 7 12 3 0 -4 7 -2 15 5 21 18 19 7 -14
-59 l-30 -58 -98 -27 c-55 -15 -105 -31 -112 -35 -7 -5 -18 -26 -24 -47 -15
-52 -23 -6972 -8 -7114 6 -52 15 -110 22 -127 l11 -32 115 -3 115 -3 24 -59
c13 -33 23 -61 21 -62 -6 -6 -206 -6 -216 0 -22 14 -10 -13 33 -71 67 -92 153
-148 263 -174 59 -13 3531 -21 3638 -8 87 11 180 55 229 109 46 51 92 143 119
239 l22 76 3 2800 c2 1853 -1 2832 -7 2895 -21 196 -81 339 -184 444 -71 71
-150 119 -181 111 -16 -5 -18 -4 -7 4 12 8 10 11 -11 16 -15 4 -32 4 -39 -1
-7 -4 -10 -3 -6 3 4 6 -217 73 -566 172 -315 89 -579 164 -587 167 -9 2 -25
37 -39 83 -32 109 -88 205 -161 279 -65 65 -132 108 -152 96 -6 -4 -8 -3 -5 3
4 6 -6 16 -21 22 -68 27 -125 42 -138 37 -8 -3 -13 -2 -10 3 3 4 -90 37 -207
73 -117 37 -455 141 -752 233 -297 92 -573 175 -614 186 -65 17 -176 24 -206
14z m185 -19 c36 -8 106 -28 155 -45 107 -37 86 -34 -40 4 -58 18 -122 29
-181 32 -82 5 -95 3 -140 -20 -135 -68 -188 -191 -213 -497 l-10 -115 5 140
c8 238 43 345 140 434 84 77 157 94 284 67z m325 -96 c28 -10 43 -18 35 -18
-8 0 -37 8 -65 18 -27 10 -43 18 -35 18 8 0 38 -8 65 -18z m-15 -137 c173 -52
394 -119 490 -148 96 -29 191 -58 210 -63 19 -5 202 -60 405 -122 393 -119
435 -136 501 -213 36 -43 78 -122 89 -168 7 -30 23 -29 -190 -13 -116 8 -159
-4 -224 -62 -92 -83 -127 -188 -141 -418 l-7 -131 -1 102 c-5 305 85 484 263
524 52 12 90 9 215 -16 14 -3 5 2 -20 11 -25 8 -79 18 -120 21 -65 5 -93 1
-215 -32 -76 -20 -155 -45 -175 -55 -42 -21 -111 -93 -136 -141 -16 -33 -16
-34 2 -18 16 14 51 26 125 44 9 2 33 8 53 13 20 6 36 8 36 6 0 -11 -43 -94
-53 -103 -7 -5 -51 -21 -99 -34 -49 -14 -93 -29 -98 -32 -7 -4 -8 3 -4 22 4
15 4 25 0 22 -4 -4 -16 -40 -26 -80 -10 -41 -18 -64 -19 -51 -1 13 -5 21 -10
18 -5 -4 -11 -3 -13 1 -5 13 -128 70 -193 91 -94 31 -131 35 -148 18 -13 -14
-16 -13 -21 7 -5 20 -6 21 -18 4 -7 -10 -25 -20 -41 -22 -32 -6 -159 12 -167
24 -11 17 -232 -26 -301 -59 -102 -49 -229 -133 -229 -151 0 -5 -5 -9 -11 -9
-14 0 -69 -56 -69 -70 0 -5 -7 -10 -15 -10 -8 0 -15 -7 -15 -15 0 -8 -5 -15
-10 -15 -6 0 -13 -8 -17 -17 -3 -10 -12 -25 -19 -34 -27 -31 -144 -252 -144
-271 0 -10 -4 -17 -9 -13 -6 3 -13 -16 -16 -42 -3 -27 -7 -55 -9 -63 -10 -58
-17 420 -14 965 4 720 2 700 71 801 49 73 121 107 202 97 22 -2 182 -47 355
-100z m145 97 c13 -5 14 -9 5 -9 -8 0 -24 4 -35 9 -13 5 -14 9 -5 9 8 0 24 -4
35 -9z m60 -20 c13 -6 15 -9 5 -9 -8 0 -22 4 -30 9 -18 12 -2 12 25 0z m85
-25 c19 -7 28 -13 20 -13 -8 0 -31 6 -50 13 -19 7 -28 13 -20 13 8 0 31 -6 50
-13z m175 -54 c50 -16 83 -29 75 -29 -18 0 -189 56 -175 57 6 0 51 -12 100
-28z m215 -66 c19 -7 28 -13 20 -13 -8 0 -31 6 -50 13 -19 7 -28 13 -20 13 8
0 31 -6 50 -13z m-1440 -3646 c0 -2171 -3 -3258 -10 -3254 -6 4 -11 165 -12
443 -1 240 -4 368 -5 284 l-4 -152 -79 0 c-47 0 -80 -4 -80 -10 0 -5 -4 -10
-10 -10 -5 0 -11 52 -13 123 -2 115 -3 113 -5 -40 -1 -102 -6 -163 -12 -163
-12 0 -12 5682 0 5820 l7 85 3 -75 c3 -70 3 -72 10 -30 l7 45 3 -45 c1 -26 5
-35 7 -22 4 21 9 22 83 22 74 0 79 -1 83 -22 2 -13 5 38 6 113 1 119 4 149 18
149 2 0 3 -1467 3 -3261z m27 -1631 c-1 -898 -2 -164 -2 1632 0 1796 1 2530 2
1633 2 -898 2 -2368 0 -3265z m2333 4578 c14 -2 97 -24 185 -49 261 -74 602
-170 895 -252 412 -114 441 -126 525 -217 74 -79 123 -179 148 -298 18 -89 19
-135 18 -769 -2 -559 -5 -679 -16 -702 -8 -15 -17 -45 -21 -68 -8 -50 -19 -59
-36 -31 -7 11 -17 20 -21 20 -12 0 -67 57 -67 69 0 6 -11 11 -24 11 -13 0 -29
7 -36 16 -8 8 -29 22 -49 30 -19 8 -56 37 -82 64 -27 28 -56 50 -68 50 -22 0
-92 44 -104 66 -4 8 -15 14 -22 14 -9 0 -15 10 -15 23 0 30 -27 54 -64 59 -26
3 -31 10 -54 78 -13 41 -28 77 -33 78 -5 2 -9 18 -9 35 0 18 -5 50 -10 72 -31
120 -59 306 -51 325 4 8 8 42 8 75 1 33 0 53 -2 45 -18 -81 -26 -189 -28 -370
-3 -193 -5 -221 -25 -279 -31 -86 -57 -124 -107 -161 -19 -14 -19 -14 -3 5 33
40 77 148 83 203 4 32 10 127 14 212 5 85 11 164 15 175 7 19 7 19 -6 -1 -50
-80 -102 -114 -174 -114 -88 0 -175 72 -233 192 -29 63 -61 178 -61 223 0 22
-3 24 -25 15 -25 -9 -25 -9 -25 48 0 81 24 148 56 156 13 4 24 11 24 16 0 5
-7 6 -17 3 -11 -4 -14 -3 -9 5 4 7 14 12 21 12 8 0 29 13 47 29 88 76 168 85
251 27 52 -36 67 -51 113 -116 l24 -34 -4 29 c-3 17 -7 71 -10 121 -6 97 -36
211 -86 319 -36 79 -114 163 -187 203 -63 34 -48 44 26 17 22 -8 41 -12 41
-10 0 7 -70 35 -140 55 -396 115 -474 133 -569 136 -85 2 -158 -15 -210 -48
-20 -13 -57 -35 -84 -48 -30 -16 -53 -37 -62 -57 -9 -18 -19 -35 -24 -37 -5
-3 -12 -26 -15 -51 -4 -25 -12 -45 -17 -45 -6 0 -8 -9 -4 -19 3 -11 1 -22 -5
-26 -12 -8 -12 -13 0 121 10 99 21 149 53 226 6 15 15 24 19 22 4 -3 6 1 3 8
-8 19 69 81 118 95 37 11 148 10 227 -1z m186 -13 c53 -15 92 -29 88 -30 -5
-2 -54 10 -109 26 -55 16 -94 30 -87 30 6 1 55 -11 108 -26z m161 -49 c-3 -3
-12 -4 -19 -1 -8 3 -5 6 6 6 11 1 17 -2 13 -5z m58 -14 c13 -5 14 -9 5 -9 -8
0 -24 4 -35 9 -13 5 -14 9 -5 9 8 0 24 -4 35 -9z m140 -40 c13 -5 14 -9 5 -9
-8 0 -24 4 -35 9 -13 5 -14 9 -5 9 8 0 24 -4 35 -9z m70 -20 c13 -5 14 -9 5
-9 -8 0 -24 4 -35 9 -13 5 -14 9 -5 9 8 0 24 -4 35 -9z m52 -16 c-3 -3 -12 -4
-19 -1 -8 3 -5 6 6 6 11 1 17 -2 13 -5z m58 -14 c13 -5 14 -9 5 -9 -8 0 -24 4
-35 9 -13 5 -14 9 -5 9 8 0 24 -4 35 -9z m-744 -40 c6 0 8 4 5 9 -4 5 4 7 16
3 16 -4 18 -7 8 -10 -8 -3 -23 -9 -32 -14 -15 -7 -18 -4 -17 14 0 13 3 17 6
11 2 -7 9 -13 14 -13z m826 14 c-3 -3 -12 -4 -19 -1 -8 3 -5 6 6 6 11 1 17 -2
13 -5z m-630 -37 c23 -11 65 -42 92 -70 158 -157 185 -477 53 -625 -33 -37
-39 -39 -44 -14 -2 9 12 36 32 59 141 162 55 540 -134 591 -26 7 -44 17 -41
22 3 6 -3 10 -14 10 -14 0 -21 6 -21 20 0 16 -7 20 -32 20 -70 0 -143 -76
-175 -179 -10 -31 -23 -62 -30 -69 -7 -7 -13 -31 -13 -52 0 -29 -4 -39 -20
-43 -18 -5 -20 0 -20 48 0 65 27 153 52 166 14 8 18 6 19 -8 0 -14 2 -12 10 5
5 13 6 29 2 35 -3 7 -3 9 1 5 4 -4 22 9 38 28 48 54 124 87 178 77 14 -3 44
-15 67 -26z m700 17 c-3 -3 -12 -4 -19 -1 -8 3 -5 6 6 6 11 1 17 -2 13 -5z
m40 -10 c-3 -3 -12 -4 -19 -1 -8 3 -5 6 6 6 11 1 17 -2 13 -5z m-1113 -65
c-14 -28 -32 -83 -39 -123 -20 -103 -27 -446 -18 -846 8 -363 6 -423 -14 -399
-31 38 -35 106 -37 643 -2 322 1 567 7 606 9 60 14 68 65 117 30 29 56 53 59
53 2 0 -8 -23 -23 -51z m552 -3 c29 -9 58 -16 65 -16 32 0 219 -65 244 -84
l27 -21 -41 0 c-34 0 -45 -6 -68 -33 -20 -24 -38 -34 -63 -37 -19 -1 -44 -6
-54 -10 -17 -7 -18 -5 -13 17 6 23 4 26 -27 30 -19 2 -32 0 -30 -4 3 -4 0 -8
-5 -8 -6 0 -11 4 -11 9 0 19 -70 126 -107 164 l-37 39 34 -15 c19 -8 58 -22
86 -31z m-388 -63 c-27 -47 -28 -49 -28 -37 0 11 38 74 45 74 2 0 -5 -17 -17
-37z m763 -90 c13 -16 12 -17 -3 -4 -10 7 -18 15 -18 17 0 8 8 3 21 -13z m-21
-32 c26 -27 41 -54 48 -88 l10 -48 1 38 c0 21 -6 54 -14 75 l-15 37 20 -25
c11 -14 24 -30 29 -35 13 -17 58 -136 66 -175 3 -19 9 -43 11 -52 3 -10 1 -18
-5 -18 -6 0 -12 8 -12 18 -1 16 -2 16 -6 0 -6 -22 -8 -22 -33 -1 -13 11 -20
30 -20 51 0 28 -3 32 -13 23 -8 -6 -18 -7 -22 -3 -5 4 -6 2 -2 -3 3 -6 -1 -19
-9 -30 -8 -10 -14 -15 -14 -11 0 5 -7 3 -15 -4 -21 -17 -77 -5 -103 23 -12 12
-28 39 -37 60 -12 30 -19 36 -29 28 -19 -16 -26 -3 -26 46 0 32 4 43 15 43 9
0 15 -10 16 -22 1 -28 5 -16 14 35 14 85 83 103 145 38z m-1213 -73 c-2 -13
-4 -3 -4 22 0 25 2 35 4 23 2 -13 2 -33 0 -45z m583 -81 c6 -18 6 -26 -1 -21
-16 10 -29 52 -22 71 7 16 8 16 11 -2 2 -11 7 -33 12 -48z m-543 -4204 c-1
-775 -2 -141 -2 1407 0 1548 1 2182 2 1408 2 -775 2 -2041 0 -2815z m-39 1400
c-2 -1545 -5 -2565 -8 -2268 l-5 540 -8 -275 c-4 -151 -12 -297 -16 -325 l-8
-50 -2 53 -1 52 -80 0 -80 0 -3 -167 c-1 -93 -3 1040 -3 2517 0 1477 2 2646 3
2598 l4 -88 79 0 c69 0 80 2 81 18 0 14 2 14 9 -3 8 -18 9 -16 11 10 2 17 6
-55 9 -160 l6 -190 2 273 c1 149 4 272 7 272 3 0 4 -1263 3 -2807z m559 2461
c-3 -3 -12 -4 -19 -1 -8 3 -5 6 6 6 11 1 17 -2 13 -5z m-79 -221 c-38 -35 -98
-139 -98 -171 0 -7 -4 -11 -9 -8 -5 3 -11 -21 -15 -53 -6 -53 -9 -58 -28 -53
-19 5 -20 10 -15 63 9 84 34 139 62 139 13 0 25 7 29 15 4 13 2 13 -14 5 -27
-14 -34 -12 -20 5 7 8 19 15 27 15 8 0 35 18 60 40 25 22 50 40 54 40 5 0 -10
-17 -33 -37z m4 -81 c-11 -15 -27 -43 -36 -62 -10 -23 -14 -26 -10 -10 6 26
50 100 60 100 3 0 -4 -12 -14 -28z m91 -221 c3 8 6 0 6 -17 1 -21 -4 -31 -14
-31 -10 0 -15 10 -15 31 0 21 3 27 9 17 7 -11 9 -11 14 0z m587 -81 c0 -5 -4
-10 -9 -10 -6 0 -13 5 -16 10 -3 6 1 10 9 10 9 0 16 -4 16 -10z m-586 -329 c3
-4 3 -11 0 -14 -8 -7 -44 4 -44 14 0 12 37 12 44 0z m661 -243 c-30 -17 -58
-22 -112 -22 -40 0 -77 4 -82 9 -7 7 22 10 82 10 52 1 101 6 112 13 11 6 25
11 30 11 6 0 -8 -10 -30 -21z m-2340 -638 c196 -179 388 -288 565 -320 69 -13
231 -15 274 -4 21 5 26 3 26 -14 0 -23 -36 -31 -145 -33 l-70 -1 45 -12 c25
-7 72 -24 105 -37 48 -19 61 -29 63 -49 3 -19 1 -22 -10 -13 -25 21 -184 71
-263 83 -189 29 -399 -22 -580 -141 -42 -27 -76 -48 -78 -47 -7 5 -47 -25 -42
-32 3 -5 1 -11 -4 -14 -16 -10 -6 22 15 45 10 11 53 45 95 75 140 98 292 152
441 157 47 1 85 4 83 6 -2 2 -36 14 -75 27 -94 32 -169 71 -258 134 -82 58
-197 163 -245 224 -35 46 -18 36 58 -34z m2452 -365 c-13 -88 -67 -158 -111
-142 -17 7 -14 51 7 97 17 39 69 90 90 90 18 0 19 -5 14 -45z m-139 -197 c18
-9 31 -9 56 0 78 29 134 10 180 -61 17 -25 17 -29 4 -45 -59 -67 -70 -195 -24
-285 21 -42 22 -47 6 -27 -30 36 -39 61 -46 135 -6 53 -10 65 -25 65 -9 0 -19
5 -21 11 -2 6 -27 14 -55 16 -44 5 -52 3 -56 -13 -3 -11 -3 1 -1 26 2 31 0 39
-6 25 -8 -21 -14 -14 -23 30 -3 11 -3 0 -2 -25 l3 -45 -14 44 c-8 25 -15 56
-16 70 -2 14 -6 28 -10 31 -4 3 -10 26 -14 50 l-7 45 24 -18 c13 -9 34 -23 47
-29z m13 -253 c6 -20 6 -26 -1 -19 -5 5 -12 25 -15 44 -5 36 -1 29 16 -25z
m23 -91 c3 -8 2 -12 -4 -9 -6 3 -10 10 -10 16 0 14 7 11 14 -7z m223 -146 c-3
-8 -6 -5 -6 6 -1 11 2 17 5 13 3 -3 4 -12 1 -19z m-36 -91 c-10 -9 -11 -8 -5
6 3 10 9 15 12 12 3 -3 0 -11 -7 -18z m-3130 -987 c5 0 9 -11 9 -25 0 -14 4
-25 9 -25 5 0 12 -8 15 -18 4 -10 26 -39 51 -64 25 -26 45 -50 45 -53 0 -16
132 -165 145 -165 2 0 15 -10 29 -22 34 -32 58 -51 76 -63 58 -36 87 -55 100
-68 8 -9 22 -17 30 -19 8 -2 29 -13 47 -25 17 -13 34 -23 37 -23 3 0 44 -18
91 -40 47 -22 88 -40 90 -40 2 0 6 19 10 42 6 35 9 39 19 26 11 -15 138 -48
185 -48 16 0 21 -9 27 -47 l8 -48 9 55 c11 62 12 60 23 -25 4 -33 9 -52 12
-42 3 13 7 15 16 8 19 -16 194 -24 261 -12 33 6 69 12 80 13 12 2 23 13 26 28
4 14 7 -96 8 -245 3 -370 16 -710 31 -768 14 -53 8 -51 135 -47 101 2 102 2
128 -70 14 -38 24 -95 11 -65 -2 6 -39 8 -96 5 -84 -5 -95 -3 -111 15 -11 11
-5 -6 13 -39 17 -32 30 -59 28 -60 -2 0 -309 1 -683 4 -669 5 -681 5 -726 26
-88 41 -152 124 -195 254 -17 51 -19 108 -22 700 -3 557 7 1200 16 1043 2 -29
7 -53 13 -53z m-191 -740 c0 -5 -18 -10 -40 -10 -22 0 -40 5 -40 10 0 6 18 10
40 10 22 0 40 -4 40 -10z m1677 -452 c-2 -13 -4 -3 -4 22 0 25 2 35 4 23 2
-13 2 -33 0 -45z m-1608 -338 c2 -94 34 -238 70 -313 75 -156 186 -230 386
-254 l60 -8 -46 -3 c-56 -4 -164 20 -220 49 -23 11 -61 38 -84 60 -117 108
-170 266 -179 526 -3 98 -2 119 4 73 4 -36 8 -94 9 -130z m1818 123 c-3 -10
-5 -4 -5 12 0 17 2 24 5 18 2 -7 2 -21 0 -30z m53 -206 c23 -201 93 -342 209
-417 105 -66 73 -64 861 -70 l715 -6 -700 -2 c-606 -2 -709 0 -760 14 -219 56
-332 250 -339 579 -2 77 -2 109 0 70 2 -38 9 -114 14 -168z m2130 -351 c0 -2
-8 -10 -17 -17 -16 -13 -17 -12 -4 4 13 16 21 21 21 13z m-84 -85 c-15 -23
-103 -53 -170 -56 l-71 -4 63 9 c73 10 128 27 157 46 23 16 28 17 21 5z
m-2463 -58 c-166 -2 -440 -2 -610 0 -169 1 -33 2 302 2 336 0 474 -1 308 -2z"/>
<path d="M2372 8153 c-23 -9 -42 -61 -42 -115 0 -62 31 -132 70 -160 28 -20
500 -158 541 -158 90 0 106 174 24 263 -14 15 -27 27 -28 27 -2 0 -115 34
-253 75 -235 71 -281 81 -312 68z"/>
<path d="M2985 7379 c-4 -6 -5 -12 -2 -15 2 -3 7 2 10 11 7 17 1 20 -8 4z"/>
<path d="M1147 7273 c3 -7 0 -13 -6 -13 -6 0 -11 5 -11 12 0 6 -3 8 -6 5 -4
-4 -2 -12 4 -20 6 -7 11 -65 11 -146 0 -94 3 -136 12 -141 14 -9 66 7 76 23
10 16 7 253 -4 270 -11 19 -83 28 -76 10z m55 -120 c-2 -65 -8 -123 -14 -130
-8 -10 -6 -13 6 -13 9 0 16 -4 16 -8 0 -17 -13 -21 -31 -9 -17 11 -19 25 -19
139 0 125 2 135 35 137 6 1 9 -42 7 -116z"/>
<path d="M1148 6729 c-31 -17 -39 -82 -38 -302 1 -180 4 -220 18 -248 22 -45
50 -48 87 -9 l30 31 -2 246 c-1 159 -5 249 -12 256 -6 6 -11 7 -12 2 0 -6 -1
-116 -2 -245 -2 -207 -4 -239 -20 -263 -18 -27 -50 -36 -62 -17 -4 6 -6 122
-6 258 2 215 4 249 18 265 10 10 25 16 36 13 11 -3 17 0 14 7 -5 16 -28 19
-49 6z m62 -554 c-7 -8 -17 -15 -22 -15 -6 0 -5 7 2 15 7 8 17 15 22 15 6 0 5
-7 -2 -15z"/>
<path d="M1141 5999 c-29 -31 -33 -81 -30 -323 4 -208 5 -216 27 -238 l22 -23
38 20 c30 16 38 27 44 60 11 61 9 440 -2 469 -20 54 -28 24 -23 -86 3 -62 2
-175 -2 -251 -6 -121 -10 -142 -29 -163 -18 -22 -23 -23 -39 -12 -17 13 -18
33 -17 263 0 215 3 251 17 267 9 10 22 18 30 18 8 0 11 5 8 10 -9 15 -22 12
-44 -11z m69 -544 c-7 -8 -17 -15 -22 -15 -6 0 -5 7 2 15 7 8 17 15 22 15 6 0
5 -7 -2 -15z"/>
<path d="M1247 5439 c7 -7 15 -10 18 -7 3 3 -2 9 -12 12 -14 6 -15 5 -6 -5z"/>
<path d="M1283 2380 c0 -25 2 -35 4 -22 2 12 2 32 0 45 -2 12 -4 2 -4 -23z"/>
<path d="M4323 6709 c-48 -14 -98 -70 -123 -136 -19 -50 -21 -73 -18 -164 4
-92 8 -113 36 -173 87 -186 219 -242 332 -140 141 127 96 468 -75 582 -27 18
-56 32 -64 32 -9 0 -25 2 -36 4 -11 3 -35 0 -52 -5z m-65 -69 c-22 -30 -35
-41 -22 -17 9 16 36 47 41 47 2 0 -6 -13 -19 -30z m150 -235 c-3 -3 -9 2 -12
12 -6 14 -5 15 5 6 7 -7 10 -15 7 -18z m-101 -27 c-3 -8 -6 -5 -6 6 -1 11 2
17 5 13 3 -3 4 -12 1 -19z m103 -75 c-11 -17 -11 -17 -6 0 3 10 7 35 8 55 l1
37 4 -37 c2 -21 -1 -46 -7 -55z"/>
<path d="M4652 6400 c0 -14 2 -19 5 -12 2 6 2 18 0 25 -3 6 -5 1 -5 -13z"/>
<path d="M3531 7154 c0 -11 3 -14 6 -6 3 7 2 16 -1 19 -3 4 -6 -2 -5 -13z"/>
<path d="M3022 5465 l-32 -27 2 -391 3 -392 5 386 c5 409 5 410 53 420 11 3
14 9 8 17 -6 10 -15 7 -39 -13z"/>
<path d="M3095 5464 c-7 -3 -9 -138 -7 -387 3 -379 -1 -441 -30 -435 -7 2 -12
-2 -13 -9 -1 -25 -17 -26 -35 -3 -16 20 -20 22 -20 8 0 -25 36 -59 55 -52 8 3
13 10 10 14 -2 4 4 15 15 25 20 18 29 8 9 -12 -7 -7 -5 -12 8 -17 9 -4 14 -4
10 0 -4 4 -1 14 6 22 9 11 12 116 14 428 1 228 -1 415 -5 417 -4 3 -11 3 -17
1z"/>
<path d="M3153 4420 c0 -47 2 -66 4 -42 2 23 2 61 0 85 -2 23 -4 4 -4 -43z"/>
<path d="M3153 4140 c0 -25 2 -35 4 -22 2 12 2 32 0 45 -2 12 -4 2 -4 -23z"/>
<path d="M3011 3724 c-21 -26 -21 -36 -21 -565 0 -526 0 -539 20 -559 35 -35
81 -21 99 31 15 43 15 1036 0 1076 -19 51 -65 59 -98 17z"/>
<path d="M3151 2594 c0 -11 3 -14 6 -6 3 7 2 16 -1 19 -3 4 -6 -2 -5 -13z"/>
</g>
</svg>
