<?xml version="1.0" encoding="iso-8859-1"?>
<!-- Uploaded to: SVG Repo, www.svgrepo.com, Generator: SVG Repo Mixer Tools -->
<!DOCTYPE svg PUBLIC "-//W3C//DTD SVG 1.1//EN" "http://www.w3.org/Graphics/SVG/1.1/DTD/svg11.dtd">
<svg height="800px" width="800px" version="1.1" id="Capa_1" xmlns="http://www.w3.org/2000/svg" xmlns:xlink="http://www.w3.org/1999/xlink" 
	 viewBox="0 0 430.624 430.624" xml:space="preserve">
<g>
	<g>
		<polygon style="fill:none;" points="91.76,166.207 108.035,250.17 150.845,250.17 137.05,166.207 		"/>
		<path style="fill:none;" d="M132.414,367.077c0,13.669,11.121,24.789,24.791,24.789c13.668,0,24.787-11.12,24.787-24.789
			s-11.119-24.789-24.787-24.789C143.535,342.289,132.414,353.408,132.414,367.077z"/>
		<path style="fill:none;" d="M305.695,367.077c0,13.669,11.123,24.789,24.793,24.789c13.668,0,24.789-11.12,24.789-24.789
			s-11.121-24.789-24.789-24.789C316.818,342.289,305.695,353.408,305.695,367.077z"/>
		<polygon style="fill:none;" points="175.165,250.17 230.158,250.17 230.158,166.207 161.371,166.207 		"/>
		<polygon style="fill:none;" points="334.261,250.17 375.64,250.17 392.298,166.207 346.314,166.207 		"/>
		<polygon style="fill:none;" points="254.158,250.17 310.015,250.17 322.068,166.207 254.158,166.207 		"/>
		<polygon style="fill:#73D0F4;" points="87.109,142.208 397.06,142.208 404.009,107.188 80.32,107.188 		"/>
		<path style="fill:#3D6889;" d="M427.898,87.573c-2.279-2.776-5.682-4.386-9.273-4.386H75.668L64.289,24.474
			c-1.094-5.642-6.035-9.717-11.781-9.717H12c-6.629,0-12,5.373-12,12s5.371,12,12,12h30.609l51.674,270.404
			c1.01,5.738,5.994,9.922,11.818,9.922h42.388c-22.757,4.122-40.076,24.067-40.076,47.995c0,26.902,21.887,48.79,48.79,48.79
			c26.902,0,48.787-21.887,48.787-48.79c0-23.927-17.316-43.872-40.074-47.995h155.855c-22.758,4.122-40.078,24.067-40.078,47.995
			c0,26.902,21.889,48.79,48.793,48.79c26.902,0,48.789-21.887,48.789-48.79c0-23.927-17.318-43.872-40.074-47.995h36.541
			c6.627,0,12-5.373,12-12c0-6.628-5.373-12-12-12H116.176L112.5,274.17h272.992c5.729,0,10.656-4.047,11.772-9.665l33.131-166.982
			C431.093,94,430.177,90.349,427.898,87.573z M355.277,367.077c0,13.669-11.121,24.789-24.789,24.789
			c-13.67,0-24.793-11.12-24.793-24.789s11.123-24.789,24.793-24.789C344.156,342.289,355.277,353.408,355.277,367.077z
			 M181.992,367.077c0,13.669-11.119,24.789-24.787,24.789c-13.67,0-24.791-11.12-24.791-24.789s11.121-24.789,24.791-24.789
			C170.872,342.289,181.992,353.408,181.992,367.077z M108.035,250.17L91.76,166.207h45.29l13.795,83.963H108.035z M230.158,250.17
			h-54.992l-13.795-83.963h68.787V250.17z M310.015,250.17h-55.857v-83.963h67.91L310.015,250.17z M375.64,250.17h-41.379
			l12.053-83.963h45.984L375.64,250.17z M397.06,142.208H87.109l-6.789-35.02h323.689L397.06,142.208z"/>
	</g>
</g>
</svg>